<svg width="19" height="23" viewBox="0 0 19 23" fill="none" xmlns="http://www.w3.org/2000/svg">
<rect width="19" height="23" fill="#E5E5E5"/>
<rect width="375" height="1828" transform="translate(-107 -1268)" fill="white"/>
<rect x="-90.85" y="-607.85" width="340.7" height="674.7" rx="15.85" stroke="#828282" stroke-width="0.3"/>
<g clip-path="url(#clip0_0_1)">
<mask id="path-2-inside-1_0_1" fill="white">
<path d="M1.29558 19.3406H4.31837V22.4774C4.31837 22.63 4.3587 22.7549 4.43986 22.8526C4.52079 22.9509 4.62426 23 4.7503 23H7.00374C7.12069 23 7.22188 22.9509 7.30736 22.8526C7.39284 22.7549 7.43545 22.6299 7.43545 22.4774V19.3406H14.2501C14.3758 19.3406 14.4793 19.2921 14.5605 19.1938C14.6417 19.0956 14.682 18.9705 14.682 18.8179V16.7269C14.682 16.5752 14.6417 16.4494 14.5605 16.3517C14.4796 16.2534 14.3758 16.2043 14.2501 16.2043H7.43523V14.2766H12.0233C13.8224 14.2766 15.2909 13.613 16.4292 12.2839C17.5671 10.9561 18.1363 9.24095 18.1363 7.13832C18.1363 5.0371 17.5671 3.32191 16.4292 1.99279C15.2911 0.664985 13.8224 0 12.0233 0H4.75008C4.624 0 4.52076 0.0490995 4.43964 0.146803C4.3587 0.245047 4.31814 0.370839 4.31814 0.522601V10.7977H1.29558C1.16955 10.7977 1.06626 10.8493 0.985143 10.9528C0.904245 11.0562 0.863647 11.1787 0.863647 11.3203V13.754C0.863647 13.9066 0.903985 14.0316 0.985143 14.1298C1.0663 14.2281 1.16932 14.2766 1.29558 14.2766H4.31837V16.2042H1.29558C1.16955 16.2042 1.06626 16.2534 0.985143 16.3517C0.904245 16.4493 0.863647 16.5749 0.863647 16.7269V18.8179C0.863647 18.9705 0.903985 19.0955 0.985143 19.1937C1.06626 19.2921 1.16951 19.3406 1.29558 19.3406ZM7.43523 3.47976H11.7534C12.7069 3.47976 13.4759 3.81723 14.0609 4.4924C14.6455 5.16762 14.938 6.05002 14.938 7.1386C14.938 8.22771 14.6455 9.11038 14.0609 9.78478C13.4759 10.4605 12.7069 10.798 11.7534 10.798H7.43523V3.47976Z"/>
</mask>
<path d="M1.29558 19.3406H4.31837V22.4774C4.31837 22.63 4.3587 22.7549 4.43986 22.8526C4.52079 22.9509 4.62426 23 4.7503 23H7.00374C7.12069 23 7.22188 22.9509 7.30736 22.8526C7.39284 22.7549 7.43545 22.6299 7.43545 22.4774V19.3406H14.2501C14.3758 19.3406 14.4793 19.2921 14.5605 19.1938C14.6417 19.0956 14.682 18.9705 14.682 18.8179V16.7269C14.682 16.5752 14.6417 16.4494 14.5605 16.3517C14.4796 16.2534 14.3758 16.2043 14.2501 16.2043H7.43523V14.2766H12.0233C13.8224 14.2766 15.2909 13.613 16.4292 12.2839C17.5671 10.9561 18.1363 9.24095 18.1363 7.13832C18.1363 5.0371 17.5671 3.32191 16.4292 1.99279C15.2911 0.664985 13.8224 0 12.0233 0H4.75008C4.624 0 4.52076 0.0490995 4.43964 0.146803C4.3587 0.245047 4.31814 0.370839 4.31814 0.522601V10.7977H1.29558C1.16955 10.7977 1.06626 10.8493 0.985143 10.9528C0.904245 11.0562 0.863647 11.1787 0.863647 11.3203V13.754C0.863647 13.9066 0.903985 14.0316 0.985143 14.1298C1.0663 14.2281 1.16932 14.2766 1.29558 14.2766H4.31837V16.2042H1.29558C1.16955 16.2042 1.06626 16.2534 0.985143 16.3517C0.904245 16.4493 0.863647 16.5749 0.863647 16.7269V18.8179C0.863647 18.9705 0.903985 19.0955 0.985143 19.1937C1.06626 19.2921 1.16951 19.3406 1.29558 19.3406ZM7.43523 3.47976H11.7534C12.7069 3.47976 13.4759 3.81723 14.0609 4.4924C14.6455 5.16762 14.938 6.05002 14.938 7.1386C14.938 8.22771 14.6455 9.11038 14.0609 9.78478C13.4759 10.4605 12.7069 10.798 11.7534 10.798H7.43523V3.47976Z" fill="black" stroke="white" stroke-width="1.4" mask="url(#path-2-inside-1_0_1)"/>
</g>
<defs>
<clipPath id="clip0_0_1">
<rect width="19" height="23" fill="white"/>
</clipPath>
</defs>
</svg>
