<svg width="12" height="12" viewBox="0 0 12 12" fill="none" xmlns="http://www.w3.org/2000/svg">
<path d="M3.07743 10.0907V9.74073H2.72743H0.895502V8.80439H2.72743H3.07743V8.45439V7.44866V7.09866H2.72743H0.895502V5.98359H2.72729H3.07729V5.63359V0.35H7.5937C8.65279 0.35 9.48896 0.670548 10.1335 1.29173C10.7767 1.91242 11.1045 2.7129 11.1045 3.72434C11.1045 4.73667 10.7766 5.53706 10.1335 6.15698L10.1334 6.15706C9.48885 6.77876 8.65296 7.09869 7.5937 7.09869H4.69597H4.34597V7.44869V8.45441V8.80441H4.69597H8.92286V9.74073H4.69612H4.34612V10.0907V11.65H3.07743V10.0907ZM8.94875 9.76654L8.94852 9.76677L8.94875 9.76654ZM4.69597 1.46552H4.34597V1.81552V5.63375V5.98375H4.69597H7.42325C8.09801 5.98375 8.676 5.78408 9.12205 5.35849C9.56892 4.93266 9.78456 4.37637 9.78456 3.72448C9.78456 3.07278 9.56886 2.51677 9.12221 2.09063L9.12213 2.09056C8.67609 1.66525 8.09812 1.46552 7.42325 1.46552H4.69597Z" fill="black" stroke="white" stroke-width="0.7"/>
</svg>
